<?xml version="1.0" encoding="UTF-8"?>
<svg id="Calque_2" data-name="Calque 2" xmlns="http://www.w3.org/2000/svg" viewBox="0 0 102.67 102.67">
  <defs>
    <style>
      .cls-1 {
        fill: #8ecae6;
        stroke-width: 1.66px;
      }

      .cls-1, .cls-2 {
        stroke: #fff;
        stroke-miterlimit: 10;
      }

      .cls-2 {
        fill: none;
        stroke-width: 2px;
      }
    </style>
  </defs>
  <g id="_8_icones" data-name="8 icones">
    <circle class="cls-1" cx="51.33" cy="51.33" r="50.5"/>
    <path class="cls-2" d="M76.16,58.59c2.64-2.74,1.56-6.13,1.34-9.8-.29-4.72-2.18-9.36-5.7-13.04l-16.4-17.15-31.54,30.16c-7.34,7.02-8.4,18.15-3.01,26.35.94-1.84,2.17-3.56,3.69-5.11l30.61-31.1,16.92,16.65c1.24,1.22,3.03,2.69,4.56,4.04"/>
    <path class="cls-2" d="M67.01,71.44l-12.05,12.63-9.59-9.15c-2.06-1.96-3.43-4.29-4.05-6.57-.76-2.83-.35-5.57,1.4-7.4l12.06-12.64,9.58,9.14c4.62,4.41,5.81,10.68,2.65,13.99Z"/>
  </g>
</svg>