<?xml version="1.0" encoding="UTF-8"?>
<svg id="Calque_1" data-name="Calque 1" xmlns="http://www.w3.org/2000/svg" viewBox="0 0 593.86 225.03">
  <defs>
    <style>
      .cls-1 {
        fill: #d81111;
      }
    </style>
  </defs>
  <path class="cls-1" d="M478.39,143.59v-68.43h-21.37v68.43c0,4.25-3.46,7.71-7.7,7.71s-7.7-3.45-7.7-7.71v-41.3c0-16.03-13.04-29.07-29.07-29.07s-29.07,13.04-29.07,29.07v41.3c0,4.25-3.46,7.71-7.71,7.71s-7.7-3.45-7.7-7.71v-68.43h-21.36v68.43c0,16.03,13.03,29.07,29.06,29.07s29.07-13.04,29.07-29.07v-41.3c0-4.25,3.45-7.71,7.71-7.71s7.71,3.46,7.71,7.71v41.3c0,16.03,13.04,29.07,29.06,29.07s29.06-13.04,29.07-29.07"/>
  <path class="cls-1" d="M330.81,143.51v-68.35h-21.36v68.35c0,4.24-3.46,7.7-7.71,7.7s-7.71-3.45-7.71-7.7v-41.31c0-16.02-13.03-29.06-29.06-29.06s-29.07,13.04-29.07,29.06v68.45h21.36v-68.45c0-4.24,3.46-7.7,7.71-7.7s7.7,3.45,7.7,7.7v41.31c0,16.02,13.05,29.06,29.07,29.06s29.06-13.04,29.07-29.06"/>
  <path class="cls-1" d="M523.35,73.14h57.59v21.36h-57.59c-4.24,0-7.7,3.46-7.7,7.71s3.45,7.71,7.7,7.71h41.31c16.02,0,29.06,13.03,29.06,29.06s-13.04,29.07-29.06,29.07h-68.45v-21.36h68.45c4.24,0,7.7-3.46,7.7-7.71s-3.45-7.7-7.7-7.7h-41.31c-16.02,0-29.06-13.05-29.06-29.07s13.04-29.06,29.06-29.07"/>
  <path class="cls-1" d="M582.81,210.74c0,.82.63,1.48,1.48,1.48h8.25c.73,0,1.32-.56,1.32-1.35s-.59-1.35-1.32-1.35h-6.73v-19.08c0-.83-.63-1.49-1.48-1.49s-1.52.66-1.52,1.49v20.3ZM573.77,205.72c0,3.27-2.05,4.26-3.7,4.26s-3.7-.99-3.7-4.26v-10.1c0-3.27,2.02-4.26,3.7-4.26s3.7.99,3.7,4.26v10.1ZM570.07,212.68c2.21,0,6.7-.99,6.7-6.96v-10.1c0-5.97-4.49-6.96-6.7-6.96s-6.7.99-6.7,6.96v10.1c0,5.97,4.49,6.96,6.7,6.96M554.66,205.72c0,3.27-2.05,4.26-3.7,4.26s-3.7-.99-3.7-4.26v-10.1c0-3.27,2.02-4.26,3.7-4.26s3.7.99,3.7,4.26v10.1ZM550.96,212.68c2.21,0,6.7-.99,6.7-6.96v-10.1c0-5.97-4.49-6.96-6.7-6.96s-6.7.99-6.7,6.96v10.1c0,5.97,4.49,6.96,6.7,6.96M528.28,201.69h6.94v9.21c0,.83.63,1.49,1.52,1.49s1.48-.66,1.48-1.49v-20.46c0-.83-.63-1.49-1.48-1.49s-1.52.66-1.52,1.49v8.52h-6.94v-8.52c0-.83-.63-1.49-1.48-1.49s-1.52.66-1.52,1.49v20.46c0,.83.63,1.49,1.52,1.49s1.48-.66,1.48-1.49v-9.21ZM516.73,206.35c0,2.21-1.42,3.63-3.34,3.63-1.68,0-3.3-1.16-3.3-4.26v-10.1c0-3.1,1.62-4.26,3.3-4.26,1.92,0,3.34,1.42,3.34,3.63,0,.83.63,1.49,1.52,1.49s1.48-.66,1.48-1.49c0-3.1-1.91-6.34-6.34-6.34-2.21,0-6.3.99-6.3,6.96v10.1c0,5.97,4.09,6.96,6.3,6.96,4.42,0,6.34-3.23,6.34-6.33,0-.83-.63-1.49-1.48-1.49s-1.52.66-1.52,1.49h0ZM501.51,194.99c0-3.1-2.08-6.34-6.5-6.34-2.21,0-6.44,1.02-6.44,6.34,0,3.86,2.87,5.18,5.61,6.44v-.03c2.28,1.09,4.52,2.08,4.52,4.66,0,2.8-2.02,3.93-3.7,3.93-2.25,0-3.7-1.81-3.7-3.63,0-.83-.63-1.49-1.48-1.49s-1.52.66-1.52,1.49c0,2.91,2.11,6.33,6.7,6.33,2.21,0,6.7-.99,6.7-6.63,0-4.39-3.16-5.84-6.04-7.2-2.11-.96-4.09-1.88-4.09-3.86,0-2.51,1.75-3.63,3.43-3.63,1.95,0,3.5,1.42,3.5,3.63,0,.83.63,1.49,1.52,1.49s1.48-.66,1.48-1.49h.01ZM462.23,198.95v-7.13h2.54c2.28,0,4.1.79,4.1,3.53s-1.82,3.6-4.1,3.6h-2.54ZM462.23,209.51v-7.83h3.01c2.84,0,4.13,1.52,4.13,3.9s-1.29,3.93-4.13,3.93h-3.01ZM459.26,210.73c0,.82.63,1.48,1.48,1.48h4.49c3.53,0,7.13-1.15,7.13-6.63,0-2.81-1.15-4.72-2.77-5.41,1.35-.82,2.27-2.54,2.27-4.82,0-5.15-3.86-6.24-7.1-6.24h-4.03c-.86,0-1.48.66-1.48,1.48v20.14h.01ZM442.19,210.73c0,.82.63,1.48,1.48,1.48h8.55c.73,0,1.32-.56,1.32-1.35s-.59-1.35-1.32-1.35h-7.03v-7.83h5.78c.73,0,1.32-.56,1.32-1.38s-.59-1.35-1.32-1.35h-5.78v-7.13h7.03c.73,0,1.32-.56,1.32-1.35s-.59-1.35-1.32-1.35h-8.55c-.86,0-1.48.66-1.48,1.48v20.14h0ZM414.99,205.71c0,6.14,3.79,6.96,6.01,6.96,1.45,0,3.57-.59,4.49-2.37.92,1.78,3.04,2.37,4.49,2.37,2.21,0,6.01-.82,6.01-6.96v-15.28c0-.83-.63-1.49-1.48-1.49s-1.52.66-1.52,1.49v15.28c0,3.27-1.59,4.26-3,4.26-1.29,0-3.01-.99-3.01-4.26v-15.12c0-.83-.63-1.49-1.48-1.49s-1.48.66-1.48,1.49v15.12c0,3.27-1.72,4.26-3.01,4.26-1.42,0-3.01-.99-3.01-4.26v-15.28c0-.83-.63-1.49-1.48-1.49s-1.52.66-1.52,1.49v15.28h-.01ZM387.2,210.73c0,.82.63,1.48,1.48,1.48h8.55c.73,0,1.32-.56,1.32-1.35s-.59-1.35-1.32-1.35h-7.03v-7.83h5.78c.73,0,1.32-.56,1.32-1.38s-.6-1.35-1.32-1.35h-5.78v-7.13h7.03c.73,0,1.32-.56,1.32-1.35s-.59-1.35-1.32-1.35h-8.55c-.86,0-1.48.66-1.48,1.48v20.14h0ZM377.5,210.89c0,.83.63,1.49,1.52,1.49.82,0,1.45-.66,1.45-1.49v-20.46c0-.83-.63-1.49-1.48-1.49s-1.48.66-1.48,1.49v20.46h0ZM361.32,191.81h3.6c1.65,0,3.17,1.02,3.17,4.26v9.18c0,3.24-1.52,4.26-3.17,4.26h-3.6v-17.7ZM358.32,210.73c0,.82.63,1.48,1.48,1.48h5.12c2.21,0,6.17-.86,6.17-6.96v-9.18c0-6.11-3.96-6.96-6.17-6.96h-5.12c-.86,0-1.48.66-1.48,1.48v20.14h0ZM338.98,210.89c0,.83.63,1.49,1.48,1.49s1.52-.66,1.52-1.49v-15.28c0-3.27,1.88-4.26,3.57-4.26s3.57.99,3.57,4.26v15.28c0,.83.63,1.49,1.48,1.49s1.52-.66,1.52-1.49v-15.28c0-6.14-4.35-6.96-6.57-6.96s-6.57.83-6.57,6.96v15.28ZM323.06,198.94v-3.34c0-3.27,1.75-4.26,3.43-4.26s3.44.99,3.44,4.26v3.34h-6.87ZM332.93,195.6c0-6.14-4.22-6.96-6.44-6.96s-6.43.83-6.43,6.96v15.28c0,.83.63,1.49,1.52,1.49s1.48-.66,1.48-1.49v-9.21h6.87v9.21c0,.83.63,1.49,1.52,1.49s1.48-.66,1.48-1.49v-15.28ZM293.03,210.88c0,.83.63,1.49,1.52,1.49s1.48-.66,1.48-1.49v-15.28c0-3.27,1.59-4.26,3.01-4.26,1.29,0,3.01.99,3.01,4.26v15.12c0,.83.63,1.49,1.48,1.49s1.48-.66,1.48-1.49v-15.12c0-3.27,1.72-4.26,3.01-4.26,1.45,0,3.01.99,3.01,4.26v15.28c0,.83.63,1.49,1.52,1.49s1.48-.66,1.48-1.49v-15.28c0-6.14-3.79-6.96-6.01-6.96-1.45,0-3.57.59-4.49,2.37-.92-1.78-3.04-2.37-4.49-2.37-2.21,0-6.01.83-6.01,6.96v15.28h0ZM277.38,199.63v-7.83h2.67c2.84,0,4.1,1.55,4.1,3.93s-1.26,3.9-4.1,3.9h-2.67ZM274.38,210.88c0,.83.63,1.49,1.52,1.49s1.48-.66,1.48-1.49v-8.52h2.18c2.25,0,4.23.89,4.26,3.6l.07,4.92c0,.83.63,1.49,1.52,1.49s1.48-.66,1.48-1.49l-.07-4.92c-.03-2.15-1.09-3.9-2.34-4.82,1.55-.86,2.67-2.54,2.67-5.41,0-5.48-3.56-6.63-7.1-6.63h-4.16c-.89,0-1.52.66-1.52,1.48v20.3h0ZM265.34,205.7c0,3.27-2.05,4.26-3.7,4.26s-3.7-.99-3.7-4.26v-10.1c0-3.27,2.02-4.26,3.7-4.26s3.7.99,3.7,4.26v10.1ZM261.64,212.66c2.21,0,6.7-.99,6.7-6.96v-10.1c0-5.97-4.49-6.96-6.7-6.96s-6.7.99-6.7,6.96v10.1c0,5.97,4.49,6.96,6.7,6.96M235.93,210.88c0,.83.63,1.49,1.48,1.49s1.52-.66,1.52-1.49v-15.28c0-3.27,1.88-4.26,3.57-4.26s3.57.99,3.57,4.26v15.28c0,.83.63,1.49,1.48,1.49s1.52-.66,1.52-1.49v-15.28c0-6.14-4.35-6.96-6.57-6.96s-6.57.83-6.57,6.96v15.28Z"/>
  <path class="cls-1" d="M21.98,89.4c0-21.14,17.2-38.33,38.33-38.33h77.72c.79,0,1.56.04,2.34.09-4.04-13.07-16.22-22.56-30.61-22.56H32.04C14.34,28.6,0,42.95,0,60.64v75.84c0,14.2,9.25,26.24,22.04,30.44-.03-.56-.06-1.11-.06-1.68v-75.84h0Z"/>
  <path class="cls-1" d="M198.35,75.53C198.35,33.82,164.54,0,122.82,0c-20.94,0-39.89,8.53-53.57,22.29h40.5c18.23,0,33.51,12.79,37.38,29.87,16.76,4.1,29.23,19.23,29.23,37.23v39.38c13.58-13.65,21.98-32.46,21.98-53.24h0Z"/>
  <path class="cls-1" d="M138.04,57.35H60.32c-17.7,0-32.04,14.35-32.04,32.04v75.84c0,17.7,14.35,32.04,32.04,32.04h37.85l27.36,26.51c.84.82,1.95,1.25,3.08,1.25.58,0,1.17-.11,1.72-.35,1.63-.69,2.7-2.29,2.7-4.07v-23.34h5.02c17.69,0,32.04-14.35,32.04-32.04v-75.84c0-17.7-14.35-32.04-32.04-32.04h-.01ZM138.9,138.49c0,7.56-6.16,13.71-13.72,13.71s-13.72-6.15-13.72-13.71v-22.34c0-2-1.63-3.63-3.63-3.63-1.81,0-3.32,1.33-3.59,3.07v22.9c0,7.56-6.16,13.71-13.72,13.71s-13.72-6.15-13.72-13.71v-22.34c0-2-1.63-3.63-3.63-3.63s-3.64,1.63-3.64,3.63v35.15h-10.08v-35.15c0-7.56,6.15-13.71,13.72-13.71s13.71,6.15,13.71,13.71v22.34c0,2,1.63,3.63,3.64,3.63s3.64-1.63,3.64-3.63v-36.06h13.67c7.56,0,13.71,6.15,13.71,13.71v22.34c0,2,1.63,3.63,3.64,3.63s3.64-1.63,3.64-3.63v-35.97h10.08v35.97h0Z"/>
</svg>