<?xml version="1.0" encoding="UTF-8"?>
<svg xmlns="http://www.w3.org/2000/svg" viewBox="0 0 243.76 52.5">
  <defs>
    <style>
      .cls-1 {
        isolation: isolate;
      }

      .cls-2 {
        mix-blend-mode: multiply;
      }

      .cls-3 {
        fill: #8ecae6;
      }

      .cls-4 {
        fill: #d81111;
      }

      .cls-5 {
        fill: #229ebc;
      }

      .cls-6 {
        fill: #005dd0;
      }

      .cls-7 {
        fill: #ffc635;
      }
    </style>
  </defs>
  <g class="cls-1">
    <g id="Calque_2" data-name="Calque 2">
      <g id="logo_variation" data-name="logo &amp;amp; variation">
        <g class="cls-2">
          <path class="cls-4" d="M14.16,31.38c4.41,0,8.23-2.51,10.18-6.23l2.3,1.24c-2.38,4.55-7.06,7.62-12.48,7.62-7.84,0-14.16-6.51-14.16-14.53V5.84h14.16v25.55Z"/>
          <path class="cls-7" d="M38.29,31.38c3.08,0,5.77-1.8,7.18-4.39l2.34,1.2c-1.83,3.47-5.38,5.83-9.52,5.83-5.85,0-10.72-5.03-10.72-11.02s4.8-11.1,10.72-11.1v19.48ZM40.32,22.12h8.77c-.39-4.23-3.08-7.94-6.75-9.54v-4.83h-2.03v14.37Z"/>
          <path class="cls-6" d="M61.53,33.58c-5.97,0-10.96-4.75-10.96-10.86s4.99-10.9,10.96-10.9v21.75ZM63.56,33.58V11.83c5.97,0,10.8,4.95,10.8,11.06v10.7h-10.8Z"/>
          <path class="cls-5" d="M99.08,31.5c4.41,0,8.23-2.51,10.18-6.23l2.3,1.24c-2.38,4.55-7.06,7.62-12.48,7.62-7.72,0-14.16-6.59-14.16-14.49s6.32-14.53,14.16-14.53v26.38ZM105.79,6.52c2.42,0,4.37,2,4.37,4.47s-1.95,4.43-4.37,4.43-4.33-1.96-4.33-4.43,1.91-4.47,4.33-4.47Z"/>
          <path class="cls-3" d="M123.65,33.58c-5.97,0-10.96-4.75-10.96-10.86s4.99-10.9,10.96-10.9v21.75ZM125.68,33.58V11.83c5.97,0,10.8,4.95,10.8,11.06v10.7h-10.8Z"/>
          <path class="cls-4" d="M149.85,2.93v30.65c-5.97,0-10.8-4.95-10.8-11.06V2.93h10.8Z"/>
          <path class="cls-7" d="M163.7,2.93v31.05c-5.97,0-10.8-4.95-10.8-11.06V2.93h10.8ZM165.72,33.98c5.97,0,10.8-4.95,10.8-11.06s-4.84-11.06-10.8-11.06v22.11Z"/>
          <path class="cls-6" d="M179.02,33.58V12.5h10.8v21.08h-10.8ZM195.32,11.87c2.03,0,3.7,1.72,3.7,3.79s-1.68,3.79-3.7,3.79-3.7-1.72-3.7-3.79,1.68-3.79,3.7-3.79Z"/>
          <path class="cls-5" d="M211.5,12.5v21.08c-5.97,0-10.8-4.95-10.8-11.06v-10.02h10.8ZM206.98,1.45c2.03,0,3.7,1.72,3.7,3.79s-1.68,3.79-3.7,3.79-3.7-1.72-3.7-3.79,1.68-3.79,3.7-3.79Z"/>
          <path class="cls-3" d="M222.66,14.5c-3.08,0-5.77,1.8-7.18,4.39l-2.34-1.2c1.83-3.47,5.38-5.83,9.52-5.83,5.85,0,10.72,5.03,10.72,11.02v8.62c3.08,0,5.77-1.8,7.18-4.39l2.34,1.2c-1.83,3.47-5.38,5.83-9.52,5.83-5.85,0-10.72-5.07-10.72-11.06v-8.58ZM218.21,33.46c-2.03,0-3.7-1.72-3.7-3.79s1.68-3.79,3.7-3.79,3.7,1.72,3.7,3.79-1.68,3.79-3.7,3.79ZM237.83,12.54c2.03,0,3.7,1.72,3.7,3.79s-1.68,3.79-3.7,3.79-3.7-1.72-3.7-3.79,1.68-3.79,3.7-3.79Z"/>
        </g>
        <g>
          <path d="M15.02,29.94c4.41,0,8.23-2.51,10.18-6.23l2.3,1.24c-2.38,4.55-7.06,7.62-12.48,7.62-7.84,0-14.16-6.51-14.16-14.53V4.39h14.16v25.55Z"/>
          <path d="M39.16,29.94c3.08,0,5.77-1.8,7.18-4.39l2.34,1.2c-1.83,3.47-5.38,5.83-9.52,5.83-5.85,0-10.72-5.03-10.72-11.02s4.8-11.1,10.72-11.1v19.48ZM41.19,20.68h8.77c-.39-4.23-3.08-7.94-6.75-9.54v-4.83h-2.03v14.37Z"/>
          <path d="M62.4,32.13c-5.97,0-10.96-4.75-10.96-10.86s4.99-10.9,10.96-10.9v21.75ZM64.43,32.13V10.38c5.97,0,10.8,4.95,10.8,11.06v10.7h-10.8Z"/>
          <path d="M99.95,30.06c4.41,0,8.23-2.51,10.18-6.23l2.3,1.24c-2.38,4.55-7.06,7.62-12.48,7.62-7.72,0-14.16-6.59-14.16-14.49s6.32-14.53,14.16-14.53v26.38ZM106.66,5.07c2.42,0,4.37,2,4.37,4.47s-1.95,4.43-4.37,4.43-4.33-1.96-4.33-4.43,1.91-4.47,4.33-4.47Z"/>
          <path d="M124.52,32.13c-5.97,0-10.96-4.75-10.96-10.86s4.99-10.9,10.96-10.9v21.75ZM126.55,32.13V10.38c5.97,0,10.8,4.95,10.8,11.06v10.7h-10.8Z"/>
          <path d="M150.72,1.48v30.65c-5.97,0-10.8-4.95-10.8-11.06V1.48h10.8Z"/>
          <path d="M164.57,1.48v31.05c-5.97,0-10.8-4.95-10.8-11.06V1.48h10.8ZM166.59,32.53c5.97,0,10.8-4.95,10.8-11.06s-4.84-11.06-10.8-11.06v22.11Z"/>
          <path d="M179.89,32.13V11.06h10.8v21.08h-10.8ZM196.19,10.42c2.03,0,3.7,1.72,3.7,3.79s-1.68,3.79-3.7,3.79-3.7-1.72-3.7-3.79,1.68-3.79,3.7-3.79Z"/>
          <path d="M212.37,11.06v21.08c-5.97,0-10.8-4.95-10.8-11.06v-10.02h10.8ZM207.85,0c2.03,0,3.7,1.72,3.7,3.79s-1.68,3.79-3.7,3.79-3.7-1.72-3.7-3.79,1.68-3.79,3.7-3.79Z"/>
          <path d="M223.52,13.05c-3.08,0-5.77,1.8-7.18,4.39l-2.34-1.2c1.83-3.47,5.38-5.83,9.52-5.83,5.85,0,10.72,5.03,10.72,11.02v8.62c3.08,0,5.77-1.8,7.18-4.39l2.34,1.2c-1.83,3.47-5.38,5.83-9.52,5.83-5.85,0-10.72-5.07-10.72-11.06v-8.58ZM219.08,32.01c-2.03,0-3.7-1.72-3.7-3.79s1.68-3.79,3.7-3.79,3.7,1.72,3.7,3.79-1.68,3.79-3.7,3.79ZM238.69,11.1c2.03,0,3.7,1.72,3.7,3.79s-1.68,3.79-3.7,3.79-3.7-1.72-3.7-3.79,1.68-3.79,3.7-3.79Z"/>
          <path d="M6.81,41.93c.17,0,.28.03.33.1l.12.14c.06.04.12.06.15.06.18,0,.27-.18.27-.55,0-.67-.29-1.23-.87-1.7-.58-.46-1.29-.7-2.12-.7-1.24,0-2.23.43-2.98,1.3-.74.86-1.11,2.02-1.11,3.48s.35,2.51,1.07,3.33c.71.82,1.67,1.23,2.89,1.23,1.15,0,2.02-.38,2.61-1.14.41-.54.63-1.06.65-1.57.01-.33.1-.49.27-.49.18,0,.27.12.27.37,0,.79-.33,1.52-1,2.2-.67.68-1.58,1.02-2.75,1.02-1.37,0-2.47-.46-3.3-1.37-.83-.91-1.25-2.11-1.25-3.59s.42-2.78,1.27-3.73c.84-.96,1.95-1.43,3.3-1.43,1,0,1.84.28,2.51.84.68.56,1.02,1.24,1.02,2.05,0,.42-.11.77-.34,1.04-.22.28-.5.41-.84.41-.5,0-.75-.24-.75-.71,0-.39.19-.59.58-.59Z"/>
          <path d="M14.3,38.89c1.34,0,2.43.47,3.27,1.41.84.94,1.26,2.17,1.26,3.69s-.42,2.69-1.26,3.62c-.84.93-1.93,1.4-3.27,1.4s-2.37-.48-3.21-1.45c-.83-.97-1.25-2.21-1.25-3.73s.42-2.64,1.25-3.56,1.9-1.38,3.21-1.38ZM14.3,48.61c1.18,0,2.14-.42,2.88-1.27.74-.84,1.11-1.94,1.11-3.29s-.37-2.56-1.1-3.45c-.74-.88-1.69-1.33-2.87-1.33s-2.13.42-2.85,1.27c-.72.84-1.08,1.95-1.08,3.31s.36,2.58,1.08,3.45c.72.87,1.66,1.31,2.84,1.31Z"/>
          <path d="M22.98,39.59v1.18c.67-1.26,1.72-1.89,3.17-1.89,1.13,0,1.95.31,2.48.94.23.27.44.68.63,1.22.27-.55.54-.96.81-1.24.63-.62,1.45-.92,2.46-.92.75,0,1.4.16,1.93.48.53.32.88.76,1.05,1.33.09.3.14.66.15,1.08.01.42.02.88.02,1.4v1.95c0,1.52.05,2.44.15,2.76.1.32.4.48.88.48h.9c.28,0,.42.07.42.22,0,.16-.12.24-.35.24h-.08l-.67-.06-.79-.06h-1.48l-.79.06-.67.06h-.06c-.24,0-.36-.07-.36-.22,0-.16.14-.24.42-.24h.9c.5,0,.8-.15.9-.46.1-.31.15-1.23.15-2.78v-2.12c0-1-.02-1.62-.06-1.88s-.17-.53-.38-.84c-.47-.67-1.24-1-2.28-1-1.16,0-2.02.46-2.55,1.38-.33.58-.5,1.48-.5,2.71v1.75c0,1.55.05,2.47.14,2.78.1.31.4.46.91.46h.88c.28,0,.42.07.42.22,0,.16-.12.24-.35.24h-.08l-.65-.06-.79-.06h-1.48l-.81.06-.67.06h-.06c-.24,0-.36-.07-.36-.22,0-.16.14-.24.42-.24h.92c.49,0,.78-.16.88-.47.1-.31.15-1.24.15-2.77v-2.46c0-.64-.01-1.06-.04-1.26-.06-.43-.23-.82-.5-1.16-.5-.64-1.25-.96-2.24-.96-1.1,0-1.95.41-2.55,1.22-.39.52-.58,1.3-.58,2.32v2.3c0,1.53.05,2.46.15,2.77.1.31.39.47.89.47h.94c.29,0,.43.07.43.22,0,.16-.12.24-.36.24h-.06l-.67-.06-.81-.06h-1.44l-.81.06-.67.06h-.06c-.24,0-.37-.07-.37-.22,0-.16.14-.24.42-.24h.9c.5,0,.8-.16.9-.47.1-.31.15-1.24.15-2.77v-3.08c0-.97,0-1.38,0-1.24-.03-.68-.13-1.07-.31-1.18-.09-.07-.25-.1-.48-.1-.08,0-.29.01-.63.04l-.52.04h-.06c-.26,0-.38-.08-.38-.26s.11-.26.33-.26h.06l.56.06h.86c.08,0,.2,0,.36-.03.17-.02.29-.03.36-.03.2,0,.31.17.31.51Z"/>
          <path d="M41.5,39.59v1.18c.67-1.26,1.72-1.89,3.17-1.89,1.13,0,1.95.31,2.48.94.23.27.44.68.63,1.22.27-.55.54-.96.81-1.24.63-.62,1.45-.92,2.46-.92.75,0,1.4.16,1.93.48.53.32.88.76,1.05,1.33.09.3.14.66.15,1.08.01.42.02.88.02,1.4v1.95c0,1.52.05,2.44.15,2.76.1.32.4.48.88.48h.9c.28,0,.42.07.42.22,0,.16-.12.24-.35.24h-.08l-.67-.06-.79-.06h-1.48l-.79.06-.67.06h-.06c-.24,0-.36-.07-.36-.22,0-.16.14-.24.42-.24h.9c.5,0,.8-.15.9-.46.1-.31.15-1.23.15-2.78v-2.12c0-1-.02-1.62-.06-1.88s-.17-.53-.38-.84c-.47-.67-1.24-1-2.28-1-1.16,0-2.02.46-2.55,1.38-.33.58-.5,1.48-.5,2.71v1.75c0,1.55.05,2.47.14,2.78.1.31.4.46.91.46h.88c.28,0,.42.07.42.22,0,.16-.12.24-.35.24h-.08l-.65-.06-.79-.06h-1.48l-.81.06-.67.06h-.06c-.24,0-.36-.07-.36-.22,0-.16.14-.24.42-.24h.92c.49,0,.78-.16.88-.47.1-.31.15-1.24.15-2.77v-2.46c0-.64-.01-1.06-.04-1.26-.06-.43-.23-.82-.5-1.16-.5-.64-1.25-.96-2.24-.96-1.1,0-1.95.41-2.55,1.22-.39.52-.58,1.3-.58,2.32v2.3c0,1.53.05,2.46.15,2.77.1.31.39.47.89.47h.94c.29,0,.43.07.43.22,0,.16-.12.24-.36.24h-.06l-.67-.06-.81-.06h-1.44l-.81.06-.67.06h-.06c-.24,0-.37-.07-.37-.22,0-.16.14-.24.42-.24h.9c.5,0,.8-.16.9-.47.1-.31.15-1.24.15-2.77v-3.08c0-.97,0-1.38,0-1.24-.03-.68-.13-1.07-.31-1.18-.09-.07-.25-.1-.48-.1-.08,0-.29.01-.63.04l-.52.04h-.06c-.26,0-.38-.08-.38-.26s.11-.26.33-.26h.06l.56.06h.86c.08,0,.2,0,.36-.03.17-.02.29-.03.36-.03.2,0,.31.17.31.51Z"/>
          <path d="M65.88,47.7v-.75c-.23.46-.49.83-.79,1.1-.69.64-1.56.96-2.61.96-1.25,0-2.18-.36-2.76-1.08-.32-.39-.53-.87-.63-1.43-.05-.33-.08-.86-.08-1.61v-2.87c0-1.18-.04-1.89-.12-2.14s-.3-.37-.68-.37c-.18,0-.39.01-.62.04-.34.04-.52.06-.56.06-.25,0-.37-.09-.37-.27,0-.16.1-.24.29-.24h.06l.54.06h1.11l.19-.02.31-.04c.23,0,.35.24.35.73v5.13c0,.69.03,1.2.1,1.51.09.52.3.96.63,1.32.52.56,1.28.84,2.26.84,1.31,0,2.23-.46,2.78-1.4.4-.67.59-1.66.59-2.99v-2.22c0-1.32-.05-2.07-.15-2.25-.1-.18-.31-.27-.63-.27-.2,0-.41.01-.64.04l-.57.06c-.25,0-.37-.08-.37-.26s.1-.26.31-.26h.06l.52.06h.96c.19,0,.33,0,.4-.03.08-.02.16-.03.25-.03.24,0,.36.26.36.79v5.99c0,1.32.04,2.07.13,2.25.09.18.3.27.63.27.04,0,.24,0,.61-.02.26-.05.45-.08.59-.08.24,0,.36.09.36.26s-.12.26-.35.26h-.04l-.56-.04-.44-.02h-.23s-.1.02-.19.06h-.56c-.19,0-.32-.06-.38-.17-.06-.11-.1-.33-.1-.67v-.26Z"/>
          <path d="M72.3,39.89v1.06c.45-.83,1.02-1.39,1.71-1.69.59-.25,1.2-.37,1.82-.37.92,0,1.68.21,2.26.62.59.41.96.99,1.11,1.74.1.51.15,1.32.15,2.42v1.45c0,1.53.05,2.46.15,2.77.1.31.4.47.88.47h.92c.28,0,.42.07.42.22,0,.16-.12.24-.36.24h-.06l-.67-.06-.81-.06h-1.46l-.79.06-.67.06h-.08c-.23,0-.35-.07-.35-.22,0-.16.14-.24.42-.24h.9c.5,0,.8-.15.89-.46.1-.31.14-1.23.14-2.78v-1.47c0-1.66-.18-2.75-.54-3.26-.51-.73-1.37-1.1-2.57-1.1-1.47,0-2.5.6-3.09,1.79-.24.48-.37,1.26-.37,2.34v1.71c0,1.53.05,2.46.15,2.77.1.31.4.47.88.47h.9c.28,0,.42.07.42.22,0,.16-.12.24-.35.24-.06,0-.09,0-.08,0l-.67-.06-.79-.06h-1.46l-.81.06-.67.06h-.06c-.24,0-.37-.07-.37-.22,0-.16.14-.24.42-.24h.9c.5,0,.8-.16.9-.47.1-.31.15-1.24.15-2.77v-3.08c0-.94,0-1.36,0-1.24-.03-.68-.12-1.07-.29-1.18-.1-.07-.27-.1-.5-.1-.08,0-.29.01-.63.04l-.58.04c-.26,0-.38-.08-.38-.26s.12-.26.35-.26c.09,0,.29.01.59.04.15.01.3.02.44.02h.37c.08,0,.2,0,.36-.03.17-.02.29-.03.36-.03.18,0,.29.05.34.14.04.09.07.31.07.67Z"/>
          <path d="M85.23,45.12c0,1.53.05,2.46.15,2.77.1.31.4.47.88.47h.9c.28,0,.42.07.42.22,0,.16-.12.24-.35.24-.06,0-.09,0-.08,0l-.67-.06-.79-.06h-1.46l-.81.06-.67.06h-.06c-.24,0-.37-.07-.37-.22,0-.16.14-.24.42-.24h.92c.49,0,.78-.16.88-.47.1-.31.15-1.24.15-2.77v-3.08c0-.96,0-1.37,0-1.24-.03-.68-.12-1.07-.29-1.18-.1-.07-.27-.1-.5-.1-.08,0-.29.01-.63.04l-.52.04h-.06c-.26,0-.38-.08-.38-.26s.11-.26.33-.26h.06l.58.06h.92c.08,0,.19,0,.35-.03.15-.02.27-.03.35-.03.2,0,.31.15.31.45v5.58ZM84.79,36.15c.19,0,.35.07.49.22.13.14.2.31.2.51s-.07.36-.2.5c-.13.14-.29.21-.47.21-.21,0-.37-.07-.51-.21-.13-.14-.2-.3-.2-.5,0-.21.07-.38.2-.52.13-.14.3-.21.49-.21Z"/>
          <path d="M95.24,41.93c.17,0,.28.03.33.1l.12.14c.06.04.12.06.15.06.18,0,.27-.18.27-.55,0-.67-.29-1.23-.87-1.7-.58-.46-1.29-.7-2.12-.7-1.24,0-2.23.43-2.98,1.3-.74.86-1.11,2.02-1.11,3.48s.35,2.51,1.07,3.33c.71.82,1.67,1.23,2.89,1.23,1.15,0,2.02-.38,2.61-1.14.41-.54.63-1.06.65-1.57.01-.33.1-.49.27-.49.18,0,.27.12.27.37,0,.79-.33,1.52-1,2.2-.67.68-1.58,1.02-2.75,1.02-1.37,0-2.47-.46-3.3-1.37-.83-.91-1.25-2.11-1.25-3.59s.42-2.78,1.27-3.73c.84-.96,1.95-1.43,3.3-1.43,1,0,1.84.28,2.51.84.68.56,1.02,1.24,1.02,2.05,0,.42-.11.77-.34,1.04-.22.28-.5.41-.84.41-.5,0-.75-.24-.75-.71,0-.39.19-.59.58-.59Z"/>
          <path d="M105.07,46.92l-.02-.16-.08.14c-.17.29-.4.59-.71.9-.79.8-1.77,1.2-2.95,1.2-.92,0-1.67-.25-2.24-.75-.57-.5-.86-1.15-.86-1.95,0-.67.21-1.24.62-1.73.41-.48.96-.8,1.64-.94.46-.09,1.01-.16,1.64-.2,1.04-.07,1.79-.25,2.26-.56.46-.31.7-.78.7-1.42s-.25-1.18-.75-1.58-1.17-.6-1.99-.6-1.58.19-2.14.57c-.56.38-.84.86-.84,1.43,0,.21.06.31.17.31.03,0,.06-.03.12-.08,0-.01.01-.05.04-.12.09-.22.26-.33.52-.33.38,0,.58.21.58.63,0,.22-.09.42-.26.58-.17.16-.38.25-.62.25-.3,0-.55-.11-.76-.34-.21-.23-.32-.5-.32-.82,0-.71.33-1.3.99-1.77.66-.47,1.48-.71,2.47-.71s1.79.24,2.36.73c.63.54.94,1.38.94,2.51v4.89c.04,1.06.38,1.59,1.02,1.59.7,0,1.06-.48,1.06-1.45v-.96c-.01-.38.07-.57.25-.57.15,0,.23.13.23.39v.79c-.04,1.47-.56,2.2-1.55,2.2-.93,0-1.43-.58-1.5-1.73v-.35ZM101.4,48.61c1.02,0,1.89-.37,2.6-1.1.71-.73,1.06-1.62,1.06-2.65v-1.91c0-.13-.03-.2-.08-.2-.01,0-.08.08-.21.24-.41.51-1.32.81-2.73.9-.82.05-1.43.15-1.83.29s-.74.39-1.01.73c-.31.38-.46.85-.46,1.41,0,.66.25,1.2.75,1.63.5.43,1.13.65,1.9.65Z"/>
          <path d="M110.59,39.79c-.01.08-.02.29-.02.65v4.13c0,1.3.08,2.23.23,2.79.23.84.75,1.26,1.57,1.26.65,0,1.11-.23,1.38-.68.27-.45.4-1.22.4-2.31v-.79c0-.27.09-.41.26-.41s.26.14.26.41v.49c0,.92-.06,1.64-.19,2.16-.24,1.01-.95,1.51-2.11,1.51-1.54,0-2.3-1.13-2.3-3.38v-5.19c0-.42-.03-.68-.09-.78-.06-.1-.21-.15-.47-.15-.08,0-.27.01-.58.04l-.44.04c-.24,0-.36-.09-.36-.27,0-.16.12-.24.35-.24.1,0,.26,0,.46.03.2.02.36.03.46.03.4,0,.64-.12.73-.37.05-.14.08-.4.08-.77v-.1c0-.55.02-.89.05-1.03.03-.14.11-.21.22-.21.14,0,.21.11.21.31v.04l-.06.94c-.04.21-.06.46-.06.75s.19.43.56.43h.64c.14,0,.36,0,.65-.03.29-.02.51-.03.65-.03.26,0,.39.09.39.26s-.14.26-.42.26h-.04l-.59-.02c-.1,0-.31-.01-.63-.04-.27-.01-.48-.02-.63-.02-.35,0-.53.09-.56.28Z"/>
          <path d="M118.43,45.12c0,1.53.05,2.46.15,2.77.1.31.4.47.88.47h.9c.28,0,.42.07.42.22,0,.16-.12.24-.35.24-.06,0-.09,0-.08,0l-.67-.06-.79-.06h-1.46l-.81.06-.67.06h-.06c-.24,0-.37-.07-.37-.22,0-.16.14-.24.42-.24h.92c.49,0,.78-.16.88-.47.1-.31.15-1.24.15-2.77v-3.08c0-.96,0-1.37,0-1.24-.03-.68-.12-1.07-.29-1.18-.1-.07-.27-.1-.5-.1-.08,0-.29.01-.63.04l-.52.04h-.06c-.26,0-.38-.08-.38-.26s.11-.26.33-.26h.06l.58.06h.92c.08,0,.19,0,.35-.03.15-.02.27-.03.35-.03.2,0,.31.15.31.45v5.58ZM117.99,36.15c.19,0,.35.07.49.22.13.14.2.31.2.51s-.07.36-.2.5c-.13.14-.29.21-.47.21-.21,0-.37-.07-.51-.21-.13-.14-.2-.3-.2-.5,0-.21.07-.38.2-.52.13-.14.3-.21.49-.21Z"/>
          <path d="M126.12,38.89c1.34,0,2.43.47,3.27,1.41.84.94,1.26,2.17,1.26,3.69s-.42,2.69-1.26,3.62c-.84.93-1.93,1.4-3.27,1.4s-2.37-.48-3.21-1.45c-.83-.97-1.25-2.21-1.25-3.73s.42-2.64,1.25-3.56,1.9-1.38,3.21-1.38ZM126.12,48.61c1.18,0,2.14-.42,2.88-1.27.74-.84,1.11-1.94,1.11-3.29s-.37-2.56-1.1-3.45c-.74-.88-1.69-1.33-2.87-1.33s-2.13.42-2.85,1.27c-.72.84-1.08,1.95-1.08,3.31s.36,2.58,1.08,3.45c.72.87,1.66,1.31,2.84,1.31Z"/>
          <path d="M134.84,39.89v1.06c.45-.83,1.02-1.39,1.71-1.69.59-.25,1.2-.37,1.82-.37.92,0,1.68.21,2.26.62.59.41.96.99,1.11,1.74.1.51.15,1.32.15,2.42v1.45c0,1.53.05,2.46.15,2.77.1.31.4.47.88.47h.92c.28,0,.42.07.42.22,0,.16-.12.24-.36.24h-.06l-.67-.06-.81-.06h-1.46l-.79.06-.67.06h-.08c-.23,0-.35-.07-.35-.22,0-.16.14-.24.42-.24h.9c.5,0,.8-.15.89-.46.1-.31.14-1.23.14-2.78v-1.47c0-1.66-.18-2.75-.54-3.26-.51-.73-1.37-1.1-2.57-1.1-1.47,0-2.5.6-3.09,1.79-.24.48-.37,1.26-.37,2.34v1.71c0,1.53.05,2.46.15,2.77.1.31.4.47.88.47h.9c.28,0,.42.07.42.22,0,.16-.12.24-.35.24-.06,0-.09,0-.08,0l-.67-.06-.79-.06h-1.46l-.81.06-.67.06h-.06c-.24,0-.37-.07-.37-.22,0-.16.14-.24.42-.24h.9c.5,0,.8-.16.9-.47.1-.31.15-1.24.15-2.77v-3.08c0-.94,0-1.36,0-1.24-.03-.68-.12-1.07-.29-1.18-.1-.07-.27-.1-.5-.1-.08,0-.29.01-.63.04l-.58.04c-.26,0-.38-.08-.38-.26s.12-.26.35-.26c.09,0,.29.01.59.04.15.01.3.02.44.02h.37c.08,0,.2,0,.36-.03.17-.02.29-.03.36-.03.18,0,.29.05.34.14.04.09.07.31.07.67Z"/>
          <path d="M154.86,45.23c-1.18,0-2.12-.37-2.84-1.1h-.12c-.31,0-.56.09-.75.28-.19.18-.29.43-.29.73,0,.92.86,1.4,2.57,1.43h1.36c1.55.03,2.69.19,3.42.49,1.13.47,1.69,1.26,1.69,2.38,0,.97-.43,1.71-1.29,2.22-.86.51-2.1.77-3.72.77s-2.84-.25-3.72-.76c-.88-.5-1.32-1.22-1.32-2.15,0-1.22.79-2.11,2.38-2.67-1.27-.2-1.9-.77-1.9-1.73,0-.75.46-1.24,1.38-1.47-.22-.47-.33-.94-.33-1.41,0-.97.33-1.77.99-2.4s1.49-.94,2.51-.94c.72,0,1.47.22,2.25.67-.05-.22-.08-.4-.08-.53,0-.45.17-.82.51-1.12.34-.3.76-.45,1.28-.45.43,0,.79.12,1.07.37.28.25.42.56.42.94,0,.26-.08.49-.24.68-.16.19-.36.28-.59.28-.4,0-.59-.2-.59-.59,0-.37.16-.55.48-.55.01,0,.07.01.17.04-.03,0,0,0,.1.02.09,0,.13-.05.13-.16,0-.16-.09-.29-.28-.41s-.41-.18-.66-.18c-.41,0-.74.12-.98.35-.24.24-.36.55-.36.94,0,.21.05.42.15.63l.38.79c.22.45.33.94.33,1.47,0,.94-.32,1.7-.97,2.28-.65.58-1.49.86-2.54.86ZM154.96,52.03c1.39,0,2.48-.22,3.25-.67s1.16-1.07,1.16-1.89c0-1.68-1.56-2.52-4.68-2.52-1.37,0-2.43.22-3.18.67-.75.45-1.12,1.08-1.12,1.91s.39,1.41,1.18,1.85c.79.43,1.92.65,3.39.65ZM154.88,44.84c.9,0,1.61-.25,2.15-.75.54-.5.81-1.17.81-2s-.27-1.53-.8-2.04c-.53-.51-1.24-.77-2.12-.77s-1.62.27-2.17.8c-.55.53-.83,1.23-.83,2.09,0,.81.27,1.46.81,1.95.54.48,1.25.73,2.15.73Z"/>
          <path d="M164.12,40.77c.7-1.26,1.71-1.89,3.01-1.89.77,0,1.4.22,1.89.66.49.44.74,1.01.74,1.7,0,.46-.11.84-.34,1.15-.22.31-.51.46-.85.46-.46,0-.69-.22-.69-.65,0-.39.19-.59.58-.59.1,0,.21.04.31.12.1.08.17.12.21.12.17,0,.25-.24.25-.71,0-.55-.2-1-.59-1.35-.4-.35-.92-.52-1.56-.52-1.1,0-1.9.42-2.4,1.26-.37.63-.56,1.6-.56,2.91v1.67c0,1.53.05,2.46.15,2.77.1.31.4.47.88.47h.9c.28,0,.42.07.42.22,0,.16-.12.24-.36.24h-.06l-.67-.06-.79-.06h-1.48l-.79.06-.67.06h-.06c-.24,0-.37-.07-.37-.22,0-.16.14-.24.42-.24h.9c.5,0,.8-.16.9-.47.1-.31.15-1.24.15-2.77v-3.08c0-.94,0-1.36,0-1.24-.03-.68-.12-1.07-.29-1.18-.1-.07-.27-.1-.5-.1-.08,0-.29.01-.63.04l-.58.04c-.26,0-.38-.08-.38-.26s.11-.26.33-.26c.12,0,.32.01.61.04.14.01.29.02.44.02h.29c.14,0,.35-.01.61-.04.03,0,.06,0,.1-.01h.1c.27,0,.4.14.4.43v1.26Z"/>
          <path d="M177.67,46.92l-.02-.16-.08.14c-.17.29-.4.59-.71.9-.79.8-1.77,1.2-2.95,1.2-.92,0-1.67-.25-2.24-.75-.57-.5-.86-1.15-.86-1.95,0-.67.21-1.24.62-1.73.41-.48.96-.8,1.64-.94.46-.09,1.01-.16,1.64-.2,1.04-.07,1.79-.25,2.26-.56.46-.31.7-.78.7-1.42s-.25-1.18-.75-1.58-1.17-.6-1.99-.6-1.58.19-2.14.57c-.56.38-.84.86-.84,1.43,0,.21.06.31.17.31.03,0,.06-.03.12-.08,0-.01.01-.05.04-.12.09-.22.26-.33.52-.33.38,0,.58.21.58.63,0,.22-.09.42-.26.58-.17.16-.38.25-.62.25-.3,0-.55-.11-.76-.34-.21-.23-.32-.5-.32-.82,0-.71.33-1.3.99-1.77.66-.47,1.48-.71,2.47-.71s1.79.24,2.36.73c.63.54.94,1.38.94,2.51v4.89c.04,1.06.38,1.59,1.02,1.59.7,0,1.06-.48,1.06-1.45v-.96c-.01-.38.07-.57.25-.57.15,0,.23.13.23.39v.79c-.04,1.47-.56,2.2-1.55,2.2-.93,0-1.43-.58-1.5-1.73v-.35ZM174,48.61c1.02,0,1.89-.37,2.6-1.1.71-.73,1.06-1.62,1.06-2.65v-1.91c0-.13-.03-.2-.08-.2-.01,0-.08.08-.21.24-.41.51-1.32.81-2.73.9-.82.05-1.43.15-1.83.29s-.74.39-1.01.73c-.31.38-.46.85-.46,1.41,0,.66.25,1.2.75,1.63.5.43,1.13.65,1.9.65Z"/>
          <path d="M183.56,41.11c.69-1.48,1.84-2.22,3.44-2.22,1.24,0,2.23.44,2.96,1.32.73.88,1.09,2.07,1.09,3.58s-.39,2.82-1.18,3.78c-.79.96-1.82,1.44-3.1,1.44-1.48,0-2.55-.62-3.21-1.87v1.65c0,1.55.05,2.48.15,2.8.1.32.4.48.88.48.09,0,.22,0,.4-.02.18-.01.31-.02.4-.02.03-.01.06-.02.12-.02.27,0,.4.09.4.26,0,.16-.12.24-.37.24h-.06l-.67-.1h-3.06l-.67.1h-.06c-.24,0-.37-.08-.37-.24,0-.17.14-.26.43-.26.03,0,.06,0,.1.02.09,0,.23,0,.42.02.19.01.33.02.42.02.49,0,.79-.16.89-.47.1-.32.15-1.24.15-2.78v-6.81c0-.96,0-1.37,0-1.24-.03-.68-.12-1.08-.29-1.18-.1-.07-.27-.1-.5-.1-.08,0-.29.02-.64.06l-.58.04c-.26,0-.39-.08-.39-.26s.11-.26.33-.26h.06l.56.04h.67c.1,0,.25,0,.45-.02.2-.01.35-.02.45-.02.26,0,.38.14.38.41v1.61ZM186.85,48.61c1.12,0,2.01-.43,2.67-1.28.66-.85.99-1.99.99-3.42s-.3-2.62-.91-3.43c-.6-.81-1.47-1.21-2.59-1.21-1.06,0-1.9.37-2.52,1.12-.37.43-.62.89-.74,1.37-.13.48-.19,1.17-.19,2.07,0,.97.02,1.6.06,1.91.09.71.32,1.28.69,1.71.65.77,1.5,1.16,2.54,1.16Z"/>
          <path d="M194.87,40.85c.33-.51.67-.9,1-1.16.7-.54,1.54-.81,2.51-.81.72,0,1.34.15,1.88.45.6.35.99.86,1.17,1.51.1.38.15,1.04.15,1.98v2.28c0,1.53.05,2.46.15,2.77.1.31.4.47.88.47h.9c.28,0,.42.07.42.22,0,.16-.12.24-.36.24h-.06l-.67-.06-.79-.06h-1.44l-.77.06-.63.06h-.08c-.24,0-.36-.07-.36-.22,0-.16.14-.24.42-.24h.84c.49,0,.78-.16.88-.47.1-.31.15-1.24.15-2.77v-2.18c0-.72-.02-1.21-.06-1.45-.08-.54-.26-.98-.56-1.32-.5-.59-1.24-.88-2.21-.88-.9,0-1.66.29-2.3.88-.73.67-1.09,1.62-1.09,2.85v2.1c0,1.52.05,2.44.15,2.76.1.32.39.48.86.48h.84c.28,0,.42.07.42.22,0,.16-.12.24-.37.24h-.06l-.65-.06-.77-.06h-1.42l-.81.06-.67.06h-.06c-.24,0-.36-.07-.36-.22,0-.16.14-.24.42-.24h.92c.49,0,.78-.16.88-.47.1-.32.15-1.24.15-2.78v-6.88c0-1.3-.05-2.04-.14-2.23-.1-.18-.31-.28-.64-.28-.18,0-.39.02-.63.05-.36.06-.55.08-.58.08-.26,0-.38-.08-.38-.26s.12-.26.35-.26h2.07c.31,0,.46.16.46.47v5.03Z"/>
          <path d="M207.44,45.12c0,1.53.05,2.46.15,2.77.1.31.4.47.88.47h.9c.28,0,.42.07.42.22,0,.16-.12.24-.35.24-.06,0-.09,0-.08,0l-.67-.06-.79-.06h-1.46l-.81.06-.67.06h-.06c-.24,0-.37-.07-.37-.22,0-.16.14-.24.42-.24h.92c.49,0,.78-.16.88-.47.1-.31.15-1.24.15-2.77v-3.08c0-.96,0-1.37,0-1.24-.03-.68-.12-1.07-.29-1.18-.1-.07-.27-.1-.5-.1-.08,0-.29.01-.63.04l-.52.04h-.06c-.26,0-.38-.08-.38-.26s.11-.26.33-.26h.06l.58.06h.92c.08,0,.19,0,.35-.03.15-.02.27-.03.35-.03.2,0,.31.15.31.45v5.58ZM207,36.15c.19,0,.35.07.49.22.13.14.2.31.2.51s-.07.36-.2.5c-.13.14-.29.21-.47.21-.21,0-.37-.07-.51-.21-.13-.14-.2-.3-.2-.5,0-.21.07-.38.2-.52.13-.14.3-.21.49-.21Z"/>
          <path d="M215.01,38.89c1.47,0,2.53.6,3.17,1.79v-1.55c-.01-.22.07-.33.26-.33s.28.11.28.33l-.06,3.16v6.54c0,1.69.07,2.65.21,2.89.14.24.43.35.85.35.09,0,.23,0,.41-.02.18-.01.32-.02.41-.02.03-.01.06-.02.1-.02.28,0,.43.09.43.26,0,.16-.12.24-.37.24h-.06l-.67-.07-.79-.05h-1.48l-.81.05-.65.07h-.08c-.24,0-.36-.08-.36-.24,0-.17.14-.26.42-.26.04,0,.07,0,.1.02.09,0,.23,0,.41.02.19.01.32.02.41.02.49,0,.78-.16.88-.48.1-.32.15-1.25.15-2.8v-1.47c-.41.62-.85,1.05-1.33,1.31-.48.26-1.1.38-1.87.38-1.34,0-2.39-.43-3.15-1.3-.75-.86-1.13-2.07-1.13-3.62s.39-2.85,1.17-3.79c.78-.94,1.83-1.41,3.15-1.41ZM217.5,47.49c.31-.43.5-.84.57-1.22.07-.38.11-1.16.11-2.34v-1.51c-.01-.58-.15-1.11-.42-1.61-.55-1.02-1.47-1.53-2.74-1.53-1.15,0-2.07.44-2.75,1.32-.68.88-1.03,2.05-1.03,3.52s.32,2.52.97,3.31c.65.79,1.55,1.19,2.72,1.19s2.05-.37,2.59-1.12Z"/>
          <path d="M229.46,47.7v-.75c-.23.46-.49.83-.79,1.1-.69.64-1.56.96-2.61.96-1.25,0-2.18-.36-2.76-1.08-.32-.39-.53-.87-.63-1.43-.05-.33-.08-.86-.08-1.61v-2.87c0-1.18-.04-1.89-.12-2.14s-.3-.37-.68-.37c-.18,0-.39.01-.62.04-.34.04-.52.06-.56.06-.25,0-.37-.09-.37-.27,0-.16.1-.24.29-.24h.06l.54.06h1.11l.19-.02.31-.04c.23,0,.35.24.35.73v5.13c0,.69.03,1.2.1,1.51.09.52.3.96.63,1.32.52.56,1.28.84,2.26.84,1.31,0,2.23-.46,2.78-1.4.4-.67.59-1.66.59-2.99v-2.22c0-1.32-.05-2.07-.15-2.25-.1-.18-.31-.27-.63-.27-.2,0-.41.01-.64.04l-.57.06c-.25,0-.37-.08-.37-.26s.1-.26.31-.26h.06l.52.06h.96c.19,0,.33,0,.4-.03.08-.02.16-.03.25-.03.24,0,.36.26.36.79v5.99c0,1.32.04,2.07.13,2.25.09.18.3.27.63.27.04,0,.24,0,.61-.02.26-.05.45-.08.59-.08.24,0,.36.09.36.26s-.12.26-.35.26h-.04l-.56-.04-.44-.02h-.23s-.1.02-.19.06h-.56c-.19,0-.32-.06-.38-.17-.06-.11-.1-.33-.1-.67v-.26Z"/>
          <path d="M241.69,43.19c0,.28-.06.44-.18.49-.12.05-.31.08-.57.08h-6.8c-.18,0-.29.03-.34.08-.04.05-.07.18-.07.39,0,1.31.35,2.37,1.05,3.17.7.81,1.61,1.21,2.74,1.21,1.22,0,2.17-.44,2.86-1.32.27-.34.46-.71.58-1.12,0-.04.03-.2.1-.49.05-.22.15-.33.29-.33.15,0,.23.09.23.28,0,.22-.07.52-.21.88-.31.79-.8,1.4-1.47,1.84-.67.44-1.46.66-2.35.66-1.31,0-2.36-.45-3.15-1.36s-1.19-2.1-1.19-3.58.41-2.78,1.24-3.74c.83-.96,1.89-1.44,3.2-1.44,1.14,0,2.1.42,2.88,1.25.78.83,1.17,1.85,1.17,3.06ZM233.82,43.01c0,.2.14.29.42.29h6.6c.22,0,.33-.1.33-.31,0-.84-.28-1.64-.84-2.4-.65-.88-1.56-1.32-2.73-1.32-.88,0-1.64.25-2.28.76s-1.08,1.22-1.35,2.13c-.1.34-.15.62-.15.84Z"/>
        </g>
      </g>
    </g>
  </g>
</svg>