<?xml version="1.0" encoding="UTF-8"?>
<svg id="Calque_2" data-name="Calque 2" xmlns="http://www.w3.org/2000/svg" viewBox="0 0 62.45 68.31">
  <defs>
    <style>
      .cls-1 {
        fill: none;
        stroke: #fff;
        stroke-miterlimit: 10;
        stroke-width: 2px;
      }
    </style>
  </defs>
  <g id="_8_icones" data-name="8 icones">
    <path class="cls-1" d="M59.7,41.41c2.64-2.74,1.56-6.13,1.34-9.8-.29-4.72-2.18-9.36-5.7-13.04L38.94,1.41,7.4,31.58C.06,38.6-1,49.72,4.39,57.92c.94-1.84,2.17-3.56,3.69-5.11l30.61-31.1,16.92,16.65c1.24,1.22,3.03,2.69,4.56,4.04"/>
    <path class="cls-1" d="M50.55,54.26l-12.05,12.63-9.59-9.15c-2.06-1.96-3.43-4.29-4.05-6.57-.76-2.83-.35-5.57,1.4-7.4l12.06-12.64,9.58,9.14c4.62,4.41,5.81,10.68,2.65,13.99Z"/>
  </g>
</svg>